<?xml version="1.0" encoding="utf-8"?>
<!-- Generator: Adobe Illustrator 15.0.0, SVG Export Plug-In . SVG Version: 6.00 Build 0)  -->
<!DOCTYPE svg PUBLIC "-//W3C//DTD SVG 1.1//EN" "http://www.w3.org/Graphics/SVG/1.1/DTD/svg11.dtd">
<svg version="1.1" id="Layer_1" xmlns="http://www.w3.org/2000/svg" xmlns:xlink="http://www.w3.org/1999/xlink" x="0px" y="0px"
	 width="743px" height="392.927px" viewBox="0 0 743 392.927" enable-background="new 0 0 743 392.927" xml:space="preserve">
<g id="Workspace3">
	<g>
		<g>
			<g>
				<circle fill="#FFFFFF" cx="545.416" cy="88.776" r="50.248"/>
				<path fill="#CDD0E0" d="M545.415,140.523c-28.533,0-51.747-23.214-51.747-51.748s23.214-51.748,51.747-51.748
					c28.534,0,51.748,23.214,51.748,51.748S573.949,140.523,545.415,140.523z M545.415,40.028
					c-26.879,0-48.747,21.868-48.747,48.748s21.868,48.748,48.747,48.748c26.88,0,48.748-21.868,48.748-48.748
					S572.295,40.028,545.415,40.028z"/>
			</g>
			<g>
				<circle fill="#E1E4EE" cx="545.416" cy="88.776" r="33.44"/>
				<path fill="#CDD0E0" d="M545.415,123.716c-19.266,0-34.939-15.674-34.939-34.94s15.674-34.94,34.939-34.94
					c19.267,0,34.94,15.674,34.94,34.94S564.682,123.716,545.415,123.716z M545.415,56.836c-17.611,0-31.939,14.328-31.939,31.94
					s14.328,31.94,31.939,31.94c17.612,0,31.94-14.328,31.94-31.94S563.027,56.836,545.415,56.836z"/>
			</g>
			<g>
				<path fill="#CDD0E0" d="M546.462,90.926c0,0.828-0.672,1.5-1.5,1.5l0,0c-0.828,0-1.5-0.672-1.5-1.5v-23.5
					c0-0.828,0.672-1.5,1.5-1.5l0,0c0.828,0,1.5,0.672,1.5,1.5V90.926z"/>
				<path fill="#CDD0E0" d="M561.087,89.676c0.76,0,1.375,0.615,1.375,1.375l0,0c0,0.76-0.615,1.375-1.375,1.375h-16.25
					c-0.759,0-1.375-0.615-1.375-1.375l0,0c0-0.76,0.616-1.375,1.375-1.375H561.087z"/>
			</g>
		</g>
		<g>
			<g>
				<g>
					<polygon fill="#FFFFFF" points="117.03,391.427 99.03,391.427 96.03,325.427 120.03,325.427 					"/>
					<path fill="#CDD0E0" d="M118.464,392.927H97.597l-3.136-69h27.14L118.464,392.927z M100.464,389.927h15.133l2.864-63H97.6
						L100.464,389.927z"/>
				</g>
				<polygon fill="#CDD0E0" points="96.03,328.427 97.212,354.427 118.849,354.427 120.03,328.427 				"/>
			</g>
			<g>
				<g>
					<polygon fill="#FFFFFF" points="644.03,391.427 626.03,391.427 623.03,325.427 647.03,325.427 					"/>
					<path fill="#CDD0E0" d="M645.464,392.927h-20.867l-3.136-69H648.6L645.464,392.927z M627.464,389.927h15.133l2.864-63H624.6
						L627.464,389.927z"/>
				</g>
				<polygon fill="#CDD0E0" points="623.03,328.427 624.212,354.427 645.849,354.427 647.03,328.427 				"/>
			</g>
			<g>
				<rect x="1.5" y="312.427" fill="#FFFFFF" width="740" height="26"/>
				<path fill="#CDD0E0" d="M743,339.927H0v-29h743V339.927z M3,336.927h737v-23H3V336.927z"/>
			</g>
		</g>
		<g>
			<path fill="#271F3E" d="M532.5,281.427c0,11.046-8.955,20-20,20h-282c-11.046,0-20-8.954-20-20v-168c0-11.046,8.954-20,20-20h282
				c11.045,0,20,8.954,20,20V281.427z"/>
			<path fill="#CDD0E0" d="M512.5,302.927h-282c-11.855,0-21.5-9.645-21.5-21.5v-168c0-11.855,9.645-21.5,21.5-21.5h282
				c11.855,0,21.5,9.645,21.5,21.5v168C534,293.283,524.355,302.927,512.5,302.927z M230.5,94.927c-10.201,0-18.5,8.299-18.5,18.5
				v168c0,10.201,8.299,18.5,18.5,18.5h282c10.201,0,18.5-8.299,18.5-18.5v-168c0-10.201-8.299-18.5-18.5-18.5H230.5z"/>
		</g>
		<g>
			<linearGradient id="SVGID_1_" gradientUnits="userSpaceOnUse" x1="257.084" y1="309.0112" x2="485.917" y2="80.1782">
				<stop  offset="0" style="stop-color:#69CEF4"/>
				<stop  offset="1" style="stop-color:#7379BA"/>
			</linearGradient>
			<rect x="224.5" y="112.761" fill="url(#SVGID_1_)" width="294" height="163.667"/>
			<path fill="#CDD0E0" d="M520,277.927H223V111.261h297V277.927z M226,274.927h291V114.261H226V274.927z"/>
		</g>
		<g>
			<g>
				<polygon fill="#FFFFFF" points="574.25,306.427 555.25,311.427 187.25,311.427 168.25,306.427 168.25,294.427 574.25,294.427 
									"/>
				<path fill="#CDD0E0" d="M555.444,312.927l-368.576-0.05l-20.119-5.294v-14.656h409v14.656L555.444,312.927z M187.445,309.927
					h367.611l17.694-4.656v-9.344h-403v9.344L187.445,309.927z"/>
			</g>
			<polygon fill="#CDD0E0" points="169.25,305.427 187.25,311.427 555.25,311.427 574.75,305.427 			"/>
		</g>
		<path fill="#CDD0E0" d="M404.688,296.594c0,1.519-0.615,2.75-1.373,2.75h-63.63c-0.759,0-1.374-1.231-1.374-2.75l0,0
			c0-1.519,0.615-2.75,1.374-2.75h63.63C404.073,293.844,404.688,295.076,404.688,296.594L404.688,296.594z"/>
		<g>
			<g>
				<path fill="#FFFFFF" d="M607.688,245.515v46.995c0,11.046,8.955,20,20,20h55.996c11.045,0,20-8.954,20-20v-46.995
					c0-0.676-0.036-1.344-0.102-2.002H607.79C607.725,244.171,607.688,244.839,607.688,245.515z"/>
				<g>
					<path fill="#CDD0E0" d="M684.183,314.01h-55.994c-11.855,0-21.5-9.645-21.5-21.5v-46.995c0-0.703,0.036-1.427,0.107-2.15
						l0.135-1.352h98.51l0.135,1.352c0.071,0.721,0.107,1.444,0.107,2.15v46.995C705.683,304.366,696.038,314.01,684.183,314.01z
						 M609.695,245.013c-0.005,0.169-0.007,0.336-0.007,0.502v46.995c0,10.201,8.299,18.5,18.5,18.5h55.994
						c10.201,0,18.5-8.299,18.5-18.5v-46.995c0-0.166-0.002-0.334-0.007-0.502H609.695z"/>
				</g>
				<path fill="none" d="M710.259,283.416c5.154,0,9.333-4.178,9.333-9.332c0-5.156-4.179-9.334-9.333-9.334
					c-2.286,0-4.378,0.824-6,2.188v14.29C705.881,282.591,707.973,283.416,710.259,283.416z"/>
				<path fill="#FFFFFF" d="M710.259,255.416c-2.102,0-4.115,0.363-6,1.004v10.519c1.622-1.364,3.714-2.188,6-2.188
					c5.154,0,9.333,4.178,9.333,9.334c0,5.154-4.179,9.332-9.333,9.332c-2.286,0-4.378-0.824-6-2.188v10.518
					c1.885,0.641,3.898,1.004,6,1.004c10.309,0,18.666-8.357,18.666-18.668C728.925,263.773,720.567,255.416,710.259,255.416z"/>
				<g>
					<path fill="#CDD0E0" d="M710.259,294.25c-2.186,0-4.367-0.364-6.482-1.084l-1.018-0.346v-14.812l2.465,2.071
						c1.408,1.184,3.197,1.836,5.035,1.836c4.319,0,7.833-3.514,7.833-7.832c0-4.319-3.514-7.834-7.833-7.834
						c-1.838,0-3.627,0.652-5.035,1.837l-2.465,2.073v-14.814l1.018-0.346c2.115-0.72,4.297-1.084,6.482-1.084
						c11.119,0,20.166,9.047,20.166,20.166C730.425,285.203,721.378,294.25,710.259,294.25z M705.759,290.637
						c1.48,0.407,2.99,0.612,4.5,0.612c9.465,0,17.166-7.701,17.166-17.168c0-9.466-7.701-17.166-17.166-17.166
						c-1.51,0-3.02,0.205-4.5,0.612v6.703c1.403-0.642,2.938-0.981,4.5-0.981c5.973,0,10.833,4.86,10.833,10.834
						c0,5.973-4.86,10.832-10.833,10.832c-1.562,0-3.097-0.34-4.5-0.981V290.637z"/>
				</g>
			</g>
			<g>
				<path fill="#5E4B8B" d="M637.286,243.67l-3.645-49.842c-0.188-2.577-2.574-4.501-5.328-4.3s-4.834,2.452-4.646,5.028
					l3.595,49.169C630.512,243.706,633.862,243.687,637.286,243.67z"/>
				<path fill="#5E4B8B" d="M679.916,243.593l3.586-49.036c0.188-2.576-1.892-4.827-4.646-5.028s-5.14,1.723-5.328,4.3l-3.639,49.76
					C673.274,243.587,676.626,243.589,679.916,243.593z"/>
				<path fill="#5E4B8B" d="M650.373,243.62l0.681-46.831c0.038-2.584-2.17-4.709-4.932-4.749c-2.76-0.041-5.029,2.02-5.066,4.603
					l-0.685,47.014C643.661,243.642,647.003,243.629,650.373,243.62z"/>
				<path fill="#8FB2AE" d="M645.257,243.648l3.272-27.096c0.31-2.565-1.662-4.912-4.403-5.242c-2.74-0.332-5.215,1.478-5.524,4.042
					l-3.423,28.345C638.464,243.678,641.835,243.663,645.257,243.648z"/>
				<path fill="#5E4B8B" d="M661.527,243.595l5.127-42.454c0.31-2.565-1.662-4.912-4.403-5.242c-2.74-0.332-5.215,1.478-5.524,4.042
					l-5.274,43.676C654.799,243.607,658.165,243.6,661.527,243.595z"/>
				<path fill="#8FB2AE" d="M672.663,243.588l-0.231-29.326c-0.02-2.583-2.275-4.659-5.036-4.637
					c-2.762,0.021-4.984,2.132-4.964,4.715l0.231,29.258C666.007,243.592,669.35,243.589,672.663,243.588z"/>
				<g>
					<path fill="#CDD0E0" d="M625.87,245.235l-3.698-50.568c-0.122-1.664,0.451-3.274,1.614-4.532
						c1.137-1.23,2.705-1.977,4.418-2.102c3.586-0.271,6.688,2.329,6.934,5.687l3.762,51.443l-1.605,0.008
						c-3.424,0.017-6.773,0.035-10.021,0.056L625.87,245.235z M628.709,191.014c-0.095,0-0.19,0.004-0.286,0.011
						c-0.951,0.069-1.815,0.477-2.434,1.146c-0.593,0.642-0.886,1.45-0.825,2.277l3.493,47.77c2.293-0.014,4.636-0.026,7.016-0.039
						l-3.527-48.24C632.026,192.298,630.517,191.014,628.709,191.014z"/>
				</g>
				<g>
					<path fill="#CDD0E0" d="M681.31,245.095l-13.033-0.007l3.756-51.369c0.245-3.357,3.357-5.958,6.934-5.687
						c1.713,0.125,3.281,0.871,4.418,2.102c1.163,1.258,1.736,2.868,1.614,4.532L681.31,245.095z M671.63,242.088l6.893,0.004
						l3.483-47.645c0.061-0.827-0.232-1.636-0.825-2.277c-0.618-0.669-1.482-1.076-2.434-1.146
						c-1.927-0.142-3.598,1.188-3.723,2.913l-3.521,48.15H671.63z"/>
				</g>
				<g>
					<path fill="#CDD0E0" d="M638.849,245.162l0.707-48.541c0.048-3.354,2.957-6.082,6.486-6.082l0.104,0.001
						c1.716,0.025,3.326,0.679,4.533,1.84c1.233,1.188,1.899,2.762,1.875,4.431l-0.702,48.306l-1.474,0.004
						c-3.369,0.01-6.711,0.022-10,0.036L638.849,245.162z M646.101,193.54c-1.957,0-3.521,1.401-3.545,3.124l-0.662,45.486
						c2.313-0.01,4.649-0.019,7.001-0.025l0.659-45.357c0.013-0.83-0.327-1.621-0.956-2.227
						C647.94,193.909,647.055,193.553,646.101,193.54L646.101,193.54z"/>
				</g>
				<g>
					<path fill="#CDD0E0" d="M649.759,245.122l5.479-45.36c0.402-3.338,3.599-5.783,7.193-5.352
						c1.705,0.205,3.237,1.024,4.314,2.308c1.102,1.312,1.599,2.946,1.398,4.604l-5.286,43.772l-1.328,0.002
						c-3.36,0.005-6.728,0.012-10.073,0.021L649.759,245.122z M661.603,197.36c-1.74,0-3.197,1.187-3.387,2.761l-5.072,41.991
						c2.348-0.006,4.701-0.011,7.054-0.015l4.968-41.136c0.1-0.824-0.154-1.646-0.717-2.314c-0.586-0.698-1.43-1.145-2.377-1.259
						C661.913,197.369,661.757,197.36,661.603,197.36z"/>
				</g>
				<g>
					<path fill="#7379BA" d="M672.663,243.588l-0.231-29.326c-0.02-2.583-2.275-4.659-5.036-4.637
						c-2.762,0.021-4.984,2.132-4.964,4.715l0.231,29.258C666.007,243.592,669.35,243.589,672.663,243.588z"/>
					<path fill="#CDD0E0" d="M661.175,245.101l-0.243-30.749c-0.013-1.669,0.664-3.238,1.905-4.418
						c1.215-1.153,2.83-1.796,4.547-1.809c3.609,0,6.522,2.748,6.548,6.125l0.243,30.838h-1.512
						c-3.313,0.001-6.654,0.004-9.998,0.01L661.175,245.101z M667.439,211.125c-0.986,0.007-1.875,0.356-2.536,0.984
						c-0.633,0.602-0.979,1.39-0.972,2.219l0.22,27.768c2.34-0.004,4.676-0.006,7-0.007l-0.22-27.815
						C670.919,212.538,669.353,211.125,667.439,211.125z"/>
				</g>
				<path fill="#7379BA" d="M620.759,243.764c3.346-0.024,6.827-0.047,10.417-0.067l-11.837-39.629
					c-0.739-2.477-3.483-3.841-6.129-3.051c-2.646,0.79-4.192,3.437-3.453,5.911L620.759,243.764z"/>
				<g>
					<path fill="#CDD0E0" d="M620.644,245.272l-11.324-37.914c-0.477-1.6-0.265-3.295,0.6-4.773
						c0.845-1.446,2.217-2.514,3.861-3.005c0.639-0.19,1.295-0.287,1.952-0.287c2.839,0,5.268,1.747,6.044,4.346l12.41,41.547
						l-2.002,0.012c-3.59,0.021-7.069,0.043-10.414,0.067L620.644,245.272z M615.732,202.292c-0.366,0-0.734,0.055-1.093,0.162
						c-0.914,0.272-1.671,0.856-2.131,1.643c-0.439,0.754-0.552,1.607-0.314,2.401l10.68,35.758
						c2.369-0.017,4.803-0.033,7.292-0.048l-11.264-37.711C618.509,203.179,617.234,202.292,615.732,202.292z"/>
				</g>
				<g>
					<path fill="#7379BA" d="M645.257,243.648l3.272-27.096c0.31-2.565-1.662-4.912-4.403-5.242
						c-2.74-0.332-5.215,1.478-5.524,4.042l-3.423,28.345C638.464,243.678,641.835,243.663,645.257,243.648z"/>
					<path fill="#CDD0E0" d="M633.485,245.207l3.627-30.034c0.402-3.338,3.6-5.78,7.193-5.352c1.705,0.205,3.237,1.024,4.314,2.308
						c1.102,1.312,1.599,2.946,1.398,4.604l-3.432,28.41l-1.324,0.006c-3.421,0.015-6.791,0.03-10.076,0.049L633.485,245.207z
						 M643.478,212.771c-1.74,0-3.197,1.187-3.387,2.761l-3.219,26.655c2.316-0.012,4.672-0.022,7.055-0.033l3.113-25.781
						c0.1-0.824-0.154-1.646-0.717-2.314c-0.586-0.698-1.43-1.145-2.377-1.259C643.788,212.78,643.632,212.771,643.478,212.771z"/>
				</g>
				<path fill="#7379BA" d="M688.458,243.604l10.955-36.676c0.739-2.475-0.807-5.121-3.453-5.911
					c-2.646-0.79-5.39,0.574-6.129,3.051l-11.805,39.521C681.568,243.591,685.058,243.596,688.458,243.604z"/>
				<g>
					<path fill="#CDD0E0" d="M689.575,245.107l-1.12-0.003c-3.399-0.008-6.889-0.013-10.43-0.015l-2.013-0.001l12.381-41.45
						c0.776-2.599,3.205-4.346,6.044-4.346c0.657,0,1.313,0.097,1.952,0.287c1.645,0.491,3.017,1.559,3.861,3.005
						c0.864,1.479,1.076,3.174,0.599,4.773L689.575,245.107z M680.04,242.09c2.467,0.003,4.904,0.006,7.302,0.011l10.634-35.603
						c0.237-0.794,0.125-1.647-0.314-2.401c-0.46-0.786-1.217-1.37-2.131-1.643c-0.358-0.107-0.727-0.162-1.093-0.162
						c-1.502,0-2.776,0.887-3.17,2.205L680.04,242.09z"/>
				</g>
			</g>
		</g>
		<g>
			<rect x="269.873" y="163.999" fill="#CDD0E0" width="70.497" height="3"/>
		</g>
		<g>
			<rect x="269.873" y="224" fill="#CDD0E0" width="70.497" height="3"/>
		</g>
		<g>
			<rect x="273.621" y="160.249" fill="#CDD0E0" width="3" height="70.497"/>
		</g>
		<g>
			<rect x="333.621" y="160.249" fill="#CDD0E0" width="3" height="70.497"/>
		</g>
		<g>
			<rect x="400.873" y="163.999" fill="#CDD0E0" width="70.496" height="3"/>
		</g>
		<g>
			<rect x="400.873" y="224" fill="#CDD0E0" width="70.496" height="3"/>
		</g>
		<g>
			<rect x="404.621" y="160.249" fill="#CDD0E0" width="3" height="70.497"/>
		</g>
		<g>
			<rect x="464.621" y="160.249" fill="#CDD0E0" width="3" height="70.497"/>
		</g>
		<g>
			<path fill="#FFFFFF" d="M305.456,226.828c-17.323,0-31.416-14.092-31.416-31.415c0-17.322,14.093-31.414,31.416-31.414
				c17.322,0,31.414,14.092,31.414,31.414C336.87,212.736,322.778,226.828,305.456,226.828z M305.456,166.999
				c-15.668,0-28.416,12.746-28.416,28.414c0,15.668,12.747,28.415,28.416,28.415c15.667,0,28.414-12.746,28.414-28.415
				C333.87,179.745,321.124,166.999,305.456,166.999z"/>
		</g>
		<g>
			<path fill="#FFFFFF" d="M305.455,210.871c-8.891,0-16.124-7.232-16.124-16.124c0-8.891,7.233-16.124,16.124-16.124
				s16.124,7.233,16.124,16.124C321.579,203.638,314.346,210.871,305.455,210.871z M305.455,181.623
				c-7.237,0-13.124,5.888-13.124,13.124c0,7.237,5.887,13.124,13.124,13.124s13.124-5.887,13.124-13.124
				C318.579,187.511,312.692,181.623,305.455,181.623z"/>
		</g>
		<path fill="#FFFFFF" d="M436.116,165.122c-16.772,0-30.417,13.645-30.417,30.416c0,16.77,13.645,30.415,30.417,30.415
			c16.771,0,30.414-13.645,30.414-30.415C466.53,178.767,452.887,165.122,436.116,165.122z M436.116,213.212
			c-9.746,0-17.675-7.93-17.675-17.674c0-9.745,7.929-17.674,17.675-17.674c9.744,0,17.673,7.929,17.673,17.674
			C453.789,205.283,445.86,213.212,436.116,213.212z"/>
		<g>
			<g>
				<g>
					<path fill="#271F3E" d="M250.163,291.037c0,5.975-4.843,10.817-10.818,10.817h-41.106c-5.974,0-10.818-4.843-10.818-10.817
						v-106.01c0-5.974,4.844-10.818,10.818-10.818h41.106c5.975,0,10.818,4.845,10.818,10.818V291.037z"/>
					<g>
						<path fill="#CDD0E0" d="M239.345,303.051h-41.106c-6.625,0-12.015-5.389-12.015-12.015v-106.01
							c0-6.625,5.39-12.014,12.015-12.014h41.106c6.625,0,12.015,5.389,12.015,12.014v106.01
							C251.36,297.663,245.97,303.051,239.345,303.051z M198.239,175.407c-5.306,0-9.621,4.315-9.621,9.62v106.01
							c0,5.306,4.315,9.621,9.621,9.621h41.106c5.305,0,9.621-4.315,9.621-9.621v-106.01c0-5.305-4.316-9.62-9.621-9.62H198.239z"/>
					</g>
					<linearGradient id="SVGID_2_" gradientUnits="userSpaceOnUse" x1="178.6211" y1="277.9897" x2="258.9648" y2="197.646">
						<stop  offset="0" style="stop-color:#69CEF4"/>
						<stop  offset="1" style="stop-color:#7379BA"/>
					</linearGradient>
					<path fill="url(#SVGID_2_)" d="M244.628,289.521c0,3.906-3.365,7.071-7.516,7.071h-36.64c-4.15,0-7.515-3.165-7.515-7.071
						v-103.41c0-3.904,3.365-7.069,7.515-7.069h36.64c4.15,0,7.516,3.165,7.516,7.069V289.521z"/>
					<path fill="#271F3E" d="M232.571,179.791c0,1.546-1.253,2.799-2.799,2.799h-21.96c-1.545,0-2.799-1.253-2.799-2.799l0,0
						c0-1.546,1.253-2.799,2.799-2.799h21.96C231.318,176.992,232.571,178.245,232.571,179.791L232.571,179.791z"/>
				</g>
				<g>
					<path fill="#FFFFFF" d="M256.747,302.516c0-9.94-8.059-17.999-18-17.999H198.25c-9.941,0-18,8.059-18,17.999
						c0,3.282,0.893,6.35,2.427,8.999h71.642C255.854,308.866,256.747,305.798,256.747,302.516z"/>
					<path fill="#CDD0E0" d="M255.185,313.015h-73.371l-0.433-0.748c-1.72-2.97-2.629-6.342-2.629-9.751
						c0-10.752,8.748-19.499,19.5-19.499h40.497c10.752,0,19.5,8.747,19.5,19.499c0,3.409-0.909,6.781-2.629,9.751L255.185,313.015z
						 M183.568,310.015h69.861c1.191-2.324,1.817-4.899,1.817-7.499c0-9.098-7.402-16.499-16.5-16.499H198.25
						c-9.098,0-16.5,7.401-16.5,16.499C181.751,305.116,182.377,307.691,183.568,310.015z"/>
				</g>
			</g>
			<g>
				<rect x="217.374" y="223.019" fill="#FFFFFF" width="2.25" height="6"/>
				
					<rect x="212.124" y="224.424" transform="matrix(0.866 -0.5001 0.5001 0.866 -85.1488 137.1143)" fill="#FFFFFF" width="2.25" height="6.001"/>
				
					<rect x="208.28" y="228.267" transform="matrix(0.4997 -0.8662 0.8662 0.4997 -95.557 297.095)" fill="#FFFFFF" width="2.251" height="6.002"/>
				<rect x="204.999" y="235.392" fill="#FFFFFF" width="6" height="2.25"/>
				
					<rect x="208.28" y="238.767" transform="matrix(-0.5001 -0.866 0.866 -0.5001 104.7522 544.009)" fill="#FFFFFF" width="2.25" height="6.001"/>
				
					<rect x="212.125" y="242.612" transform="matrix(-0.8659 -0.5002 0.5002 -0.8659 275.0305 564.9601)" fill="#FFFFFF" width="2.249" height="6"/>
				<rect x="217.374" y="244.017" fill="#FFFFFF" width="2.25" height="6"/>
				
					<rect x="222.622" y="242.612" transform="matrix(-0.866 0.5001 -0.5001 -0.866 540.3369 346.407)" fill="#FFFFFF" width="2.251" height="6"/>
				
					<rect x="226.466" y="238.769" transform="matrix(-0.4997 0.8662 -0.8662 -0.4997 550.7377 165.4359)" fill="#FFFFFF" width="2.251" height="5.999"/>
				<rect x="225.999" y="235.393" fill="#FFFFFF" width="5.999" height="2.252"/>
				
					<rect x="226.466" y="228.27" transform="matrix(0.4997 0.8662 -0.8662 0.4997 314.1944 -81.4341)" fill="#FFFFFF" width="2.251" height="5.998"/>
				
					<rect x="222.623" y="224.425" transform="matrix(0.8662 0.4998 -0.4998 0.8662 143.6102 -81.3847)" fill="#FFFFFF" width="2.251" height="6"/>
			</g>
		</g>
		<g>
			<rect x="56.691" y="208.021" fill="#271F3E" width="12" height="97.495"/>
			<path fill="#CDD0E0" d="M70.191,307.016h-15V206.521h15V307.016z M58.191,304.016h9V209.52h-9V304.016z"/>
		</g>
		<g>
			<path fill="#271F3E" d="M117.439,305.516c0,2.899-2.351,5.249-5.25,5.249H34.193c-2.899,0-5.25-2.35-5.25-5.249l0,0
				c0-2.899,2.351-5.25,5.25-5.25h77.996C115.088,300.266,117.439,302.617,117.439,305.516L117.439,305.516z"/>
			<path fill="#CDD0E0" d="M112.189,312.265H34.193c-3.722,0-6.75-3.027-6.75-6.749s3.028-6.75,6.75-6.75h77.996
				c3.722,0,6.75,3.028,6.75,6.75S115.911,312.265,112.189,312.265z M34.193,301.766c-2.068,0-3.75,1.683-3.75,3.75
				s1.682,3.749,3.75,3.749h77.996c2.067,0,3.75-1.682,3.75-3.749s-1.682-3.75-3.75-3.75H34.193z"/>
		</g>
		<g>
			
				<rect x="197.934" y="1.52" transform="matrix(0.8386 0.5447 -0.5447 0.8386 46.6584 -104.9356)" fill="#CDD0E0" width="5" height="49.52"/>
		</g>
		<g>
			
				<rect x="112.053" y="23.049" transform="matrix(0.8435 0.5371 -0.5371 0.8435 101.0501 -39.7814)" fill="#271F3E" width="13.499" height="260.987"/>
			<path fill="#CDD0E0" d="M54.875,269.317l-13.918-8.861L182.73,37.769l13.918,8.861L54.875,269.317z M45.098,259.536l8.857,5.639
				L192.506,47.55l-8.857-5.639L45.098,259.536z"/>
		</g>
		<g>
			<path fill="#271F3E" d="M321.178,10.781c0,5.125-4.155,9.28-9.281,9.28h-96.932c-5.126,0-9.281-4.155-9.281-9.28l0,0
				c0-5.126,4.155-9.281,9.281-9.281h96.932C317.022,1.5,321.178,5.655,321.178,10.781L321.178,10.781z"/>
			<path fill="#CDD0E0" d="M311.897,21.562h-96.932c-5.945,0-10.781-4.836-10.781-10.78C204.184,4.836,209.02,0,214.965,0h96.932
				c5.944,0,10.781,4.836,10.781,10.781C322.678,16.726,317.841,21.562,311.897,21.562z M214.965,3
				c-4.291,0-7.781,3.491-7.781,7.781c0,4.29,3.491,7.78,7.781,7.78h96.932c4.291,0,7.781-3.49,7.781-7.78
				c0-4.291-3.49-7.781-7.781-7.781H214.965z"/>
		</g>
		<polygon fill="#FFFFFF" points="346.099,191.592 346.099,212.91 351.585,207.427 355.567,215.103 358.461,213.607 
			354.627,206.212 362.033,206.212 		"/>
	</g>
	<g>
		
			<rect x="561.284" y="184.386" transform="matrix(0.3902 0.9207 -0.9207 0.3902 583.027 -365.3296)" fill="#FFFFFF" width="12.037" height="146.16"/>
		<g>
			<path fill="#CDD0E0" d="M501.858,293.335l-5.611-13.242l136.732-57.946l5.611,13.241L501.858,293.335z M499.322,281.336
				l3.781,8.924l132.413-56.116l-3.781-8.924L499.322,281.336z"/>
		</g>
		<path fill="#271F3E" d="M596.298,252.038l40.756-17.272l-4.696-11.081l-40.778,17.282
			C593.1,244.52,594.695,248.264,596.298,252.038z"/>
		<path fill="#CDD0E0" d="M590.037,240.345l42.942-18.198l5.611,13.241l-42.914,18.188l-0.46-1.08
			c-1.6-3.771-3.195-7.515-4.716-11.068L590.037,240.345z M631.735,225.22l-38.616,16.365c1.234,2.889,2.513,5.888,3.801,8.916
			l38.597-16.357L631.735,225.22z"/>
		
			<rect x="492.242" y="283.914" transform="matrix(0.3904 0.9206 -0.9206 0.3904 567.8812 -281.1974)" fill="#271F3E" width="8.082" height="8.631"/>
		<path fill="#CDD0E0" d="M493.265,295.171l-4.069-9.6l10.105-4.282l4.069,9.601L493.265,295.171z M492.27,286.816l2.239,5.282
			l5.786-2.453l-2.238-5.281L492.27,286.816z"/>
		<g>
			
				<rect x="624.413" y="220.911" transform="matrix(0.3902 0.9207 -0.9207 0.3902 586.7208 -441.7322)" fill="#CDD0E0" width="4.873" height="2.345"/>
		</g>
		<g>
			
				<rect x="590.861" y="235.13" transform="matrix(0.3899 0.9208 -0.9208 0.3899 579.5387 -402.1727)" fill="#CDD0E0" width="4.871" height="2.345"/>
		</g>
		<g>
			
				<rect x="608.1" y="207.909" transform="matrix(0.3905 0.9206 -0.9206 0.3905 580.572 -422.3555)" fill="#CDD0E0" width="2.345" height="38.788"/>
		</g>
	</g>
</g>
</svg>
